<svg width="20" height="20" viewBox="0 0 20 20" fill="none" xmlns="http://www.w3.org/2000/svg">
<path fill-rule="evenodd" clip-rule="evenodd" d="M8.44349 0.443847C8.85407 0.320678 9.28777 0.295198 9.70995 0.369442C10.1321 0.443686 10.5311 0.615598 10.8751 0.871454C11.219 1.12731 11.4983 1.46003 11.6908 1.84304C11.8833 2.22606 11.9836 2.64877 11.9837 3.07743V16.4828C11.9836 16.9115 11.8833 17.3342 11.6908 17.7172C11.4983 18.1002 11.219 18.4329 10.8751 18.6888C10.5311 18.9446 10.1321 19.1165 9.70995 19.1908C9.28777 19.265 8.85407 19.2395 8.44349 19.1164L2.94348 17.4664C2.37707 17.2965 1.88052 16.9485 1.52749 16.4741C1.17445 15.9997 0.98374 15.4241 0.983643 14.8328V4.72744C0.98374 4.13609 1.17445 3.56053 1.52749 3.08613C1.88052 2.61173 2.37707 2.26376 2.94348 2.09385L8.44349 0.443847V0.443847ZM12.9003 2.44677C12.9003 2.20365 12.9969 1.97049 13.1688 1.79858C13.3407 1.62668 13.5739 1.5301 13.817 1.5301H16.567C17.2963 1.5301 17.9958 1.81983 18.5115 2.33556C19.0273 2.85128 19.317 3.55076 19.317 4.2801V5.19677C19.317 5.43989 19.2204 5.67304 19.0485 5.84495C18.8766 6.01686 18.6435 6.11344 18.4003 6.11344C18.1572 6.11344 17.9241 6.01686 17.7522 5.84495C17.5802 5.67304 17.4837 5.43989 17.4837 5.19677V4.2801C17.4837 4.03699 17.3871 3.80383 17.2152 3.63192C17.0433 3.46001 16.8101 3.36343 16.567 3.36343H13.817C13.5739 3.36343 13.3407 3.26686 13.1688 3.09495C12.9969 2.92304 12.9003 2.68988 12.9003 2.44677ZM18.4003 13.4468C18.6435 13.4468 18.8766 13.5434 19.0485 13.7153C19.2204 13.8872 19.317 14.1203 19.317 14.3635V15.2801C19.317 16.0095 19.0273 16.7089 18.5115 17.2247C17.9958 17.7404 17.2963 18.0301 16.567 18.0301H13.817C13.5739 18.0301 13.3407 17.9335 13.1688 17.7616C12.9969 17.5897 12.9003 17.3566 12.9003 17.1135C12.9003 16.8703 12.9969 16.6372 13.1688 16.4653C13.3407 16.2934 13.5739 16.1968 13.817 16.1968H16.567C16.8101 16.1968 17.0433 16.1002 17.2152 15.9283C17.3871 15.7564 17.4837 15.5232 17.4837 15.2801V14.3635C17.4837 14.1203 17.5802 13.8872 17.7522 13.7153C17.9241 13.5434 18.1572 13.4468 18.4003 13.4468ZM7.40032 8.86344C7.1572 8.86344 6.92405 8.96002 6.75214 9.13193C6.58023 9.30384 6.48365 9.53699 6.48365 9.78011C6.48365 10.0232 6.58023 10.2564 6.75214 10.4283C6.92405 10.6002 7.1572 10.6968 7.40032 10.6968H7.40124C7.64435 10.6968 7.87751 10.6002 8.04942 10.4283C8.22133 10.2564 8.3179 10.0232 8.3179 9.78011C8.3179 9.53699 8.22133 9.30384 8.04942 9.13193C7.87751 8.96002 7.64435 8.86344 7.40124 8.86344H7.40032Z" fill="white"/>
<path d="M13.8169 9.78011H18.4002M18.4002 9.78011L16.5669 7.94678M18.4002 9.78011L16.5669 11.6134" stroke="white" stroke-width="2" stroke-linecap="round" stroke-linejoin="round"/>
</svg>
